<svg width="38" height="19" viewBox="0 0 38 19" fill="none" xmlns="http://www.w3.org/2000/svg">
<path fill-rule="evenodd" clip-rule="evenodd" d="M7.74536 2.31679C8.27536 1.78679 8.27536 0.927495 7.74536 0.397498C7.21536 -0.132499 6.35607 -0.132499 5.82607 0.397498L0.397498 5.82607C-0.132499 6.35607 -0.132499 7.21536 0.397498 7.74536L5.82607 13.1739C6.35607 13.7039 7.21536 13.7039 7.74536 13.1739C8.27536 12.6439 8.27536 11.7846 7.74536 11.2546L4.63347 8.14275H27.6518C31.8529 8.14275 35.2857 11.6855 35.2857 15.9463V17.6428C35.2857 18.3923 35.8933 18.9999 36.6429 18.9999C37.3924 18.9999 38 18.3923 38 17.6428V15.9463C38 10.2542 33.4189 5.42847 27.6518 5.42847H4.63368L7.74536 2.31679Z" fill="white"/>
</svg>
