<svg width="386" height="110" viewBox="0 0 386 110" fill="none" xmlns="http://www.w3.org/2000/svg">
<path d="M142.613 76.1652C139.739 76.1652 137.046 75.6574 134.504 74.6418C131.963 73.6262 129.784 72.2223 127.969 70.4898C126.153 68.7274 124.731 66.6365 123.702 64.1871C122.673 61.7377 122.129 59.1389 122.129 56.3609C122.129 53.5829 122.643 50.9543 123.702 48.5348C124.731 46.0854 126.183 43.9945 127.969 42.2321C129.784 40.4697 131.963 39.0956 134.504 38.08C137.046 37.0644 139.739 36.5566 142.613 36.5566C146.214 36.5566 149.512 37.3333 152.508 38.8567C155.503 40.3801 157.924 42.5009 159.77 45.1893L152.235 49.7894C151.176 48.266 149.815 47.0413 148.12 46.175C146.426 45.2789 144.61 44.8607 142.644 44.8607C139.346 44.8607 136.592 45.9659 134.383 48.1465C132.174 50.327 131.055 53.0751 131.055 56.3908C131.055 59.7064 132.174 62.4546 134.383 64.6351C136.592 66.8157 139.346 67.9209 142.644 67.9209C144.641 67.9209 146.456 67.4728 148.151 66.6066C149.815 65.7403 151.176 64.5156 152.266 62.9922L159.8 67.5923C157.954 70.2807 155.534 72.4015 152.538 73.9249C149.512 75.3886 146.214 76.1652 142.613 76.1652Z" fill="white"/>
<path d="M164.672 75.4782V35.541H172.872V75.4782H164.672Z" fill="white"/>
<path d="M179.953 75.4784V47.2207H188.153V75.4784H179.953Z" fill="white"/>
<path d="M212.114 46.5337C215.412 46.5337 218.045 47.5194 220.072 49.461C222.069 51.4325 223.098 54.0312 223.098 57.2872V75.4784H214.898V60.0054C214.898 58.3028 214.384 56.9287 213.385 55.8832C212.356 54.8676 211.025 54.33 209.331 54.33C207.576 54.33 206.154 54.8676 205.064 55.9131C203.975 56.9586 203.43 58.3625 203.43 60.095V75.4485H195.23V47.1908H203.43V49.9987C205.7 47.6987 208.604 46.5337 212.114 46.5337Z" fill="white"/>
<path d="M249.273 53.583H268.154V56.5402C268.154 60.2441 267.306 63.6195 265.612 66.6066C263.918 69.5937 261.588 71.9534 258.592 73.6262C255.597 75.3288 252.238 76.1652 248.486 76.1652C245.642 76.1652 242.949 75.6574 240.437 74.6418C237.926 73.6262 235.747 72.2223 233.962 70.4898C232.177 68.7274 230.755 66.6365 229.726 64.1871C228.697 61.7377 228.183 59.1389 228.183 56.3609C228.183 53.5829 228.697 50.9543 229.756 48.5348C230.785 46.0854 232.237 43.9945 234.023 42.2321C235.838 40.4697 238.017 39.0956 240.558 38.08C243.1 37.0644 245.793 36.5566 248.668 36.5566C251.996 36.5566 255.082 37.2138 257.896 38.5281C260.71 39.8424 263.01 41.6347 264.795 43.9048L258.199 49.0426C257.11 47.6984 255.748 46.6529 254.114 45.9062C252.48 45.1594 250.725 44.7711 248.819 44.7711C245.46 44.7711 242.676 45.8763 240.437 48.0867C238.198 50.2972 237.079 53.0453 237.079 56.3609C237.079 59.6766 238.198 62.4247 240.437 64.6351C242.676 66.8456 245.46 67.9508 248.789 67.9508C251.209 67.9508 253.358 67.3235 255.173 66.0988C256.988 64.8741 258.229 63.2611 258.834 61.2597H249.303V53.583H249.273Z" fill="white"/>
<path d="M302.314 61.4691C302.314 62.4548 302.254 63.2912 302.163 64.0081H280.831C281.346 65.5912 282.253 66.8458 283.554 67.7419C284.855 68.638 286.399 69.0861 288.184 69.0861C289.727 69.0861 291.119 68.7874 292.39 68.19C293.661 67.5925 294.659 66.8458 295.385 65.9497L300.892 70.6692C299.349 72.4017 297.443 73.7459 295.204 74.7316C292.965 75.6875 290.574 76.1654 287.972 76.1654C283.433 76.1654 279.621 74.7316 276.565 71.8641C273.509 68.9965 271.996 65.4419 271.996 61.1703C271.996 58.4521 272.662 55.9728 273.993 53.7325C275.324 51.4922 277.14 49.7299 279.5 48.4454C281.83 47.161 284.432 46.5337 287.276 46.5337C291.573 46.5337 295.143 47.9376 298.018 50.7753C300.862 53.6131 302.314 57.1677 302.314 61.4691ZM287.125 53.5234C285.582 53.5234 284.25 53.9715 283.101 54.8975C281.951 55.8235 281.164 57.0482 280.74 58.6313H293.6C293.146 57.0482 292.329 55.7936 291.179 54.8975C290.06 53.9715 288.698 53.5234 287.125 53.5234Z" fill="white"/>
<path d="M324.494 46.5337C327.792 46.5337 330.425 47.5194 332.452 49.461C334.449 51.4325 335.478 54.0312 335.478 57.2872V75.4784H327.278V60.0054C327.278 58.3028 326.763 56.9287 325.765 55.8832C324.736 54.8676 323.405 54.33 321.71 54.33C319.955 54.33 318.533 54.8676 317.444 55.9131C316.355 56.9586 315.81 58.3625 315.81 60.095V75.4485H307.61V47.1908H315.81V49.9987C318.079 47.6987 320.984 46.5337 324.494 46.5337Z" fill="white"/>
<path d="M341.985 75.4784V47.2207H350.185V75.4784H341.985Z" fill="white"/>
<path d="M385.886 61.4691C385.886 62.4548 385.826 63.2912 385.735 64.0081H364.403C364.918 65.5912 365.825 66.8458 367.127 67.7419C368.428 68.638 369.971 69.0861 371.756 69.0861C373.299 69.0861 374.691 68.7874 375.962 68.19C377.233 67.5925 378.231 66.8458 378.957 65.9497L384.464 70.6692C382.921 72.4017 381.015 73.7459 378.776 74.7316C376.537 75.6875 374.146 76.1654 371.544 76.1654C367.006 76.1654 363.193 74.7316 360.137 71.8641C357.081 68.9965 355.568 65.4419 355.568 61.1703C355.568 58.4521 356.234 55.9728 357.565 53.7325C358.896 51.4922 360.712 49.7299 363.072 48.4454C365.402 47.161 368.004 46.5337 370.848 46.5337C375.145 46.5337 378.715 47.9376 381.59 50.7753C384.464 53.6131 385.886 57.1677 385.886 61.4691ZM370.727 53.5234C369.184 53.5234 367.853 53.9715 366.703 54.8975C365.553 55.8235 364.766 57.0482 364.343 58.6313H377.202C376.749 57.0482 375.932 55.7936 374.782 54.8975C373.632 53.9715 372.27 53.5234 370.727 53.5234Z" fill="white"/>
<path d="M184.035 43.5763C182.613 43.5763 181.402 43.0983 180.434 42.1425C179.466 41.1866 178.982 40.0216 178.982 38.5878C178.982 37.1839 179.466 36.019 180.434 35.0631C181.402 34.1371 182.613 33.6592 184.035 33.6592C185.487 33.6592 186.728 34.1371 187.696 35.0631C188.664 35.9891 189.148 37.1839 189.148 38.5878C189.148 40.0216 188.664 41.1866 187.696 42.1425C186.728 43.0983 185.487 43.5763 184.035 43.5763Z" fill="white"/>
<path d="M346.066 43.5763C344.644 43.5763 343.434 43.0983 342.466 42.1425C341.498 41.1866 341.013 40.0216 341.013 38.5878C341.013 37.1839 341.498 36.019 342.466 35.0631C343.434 34.1371 344.644 33.6592 346.066 33.6592C347.519 33.6592 348.759 34.1371 349.728 35.0631C350.696 35.9891 351.18 37.1839 351.18 38.5878C351.18 40.0216 350.696 41.1866 349.728 42.1425C348.759 43.1282 347.549 43.5763 346.066 43.5763Z" fill="white"/>
<path d="M58.0739 109.928C27.3924 111.004 1.5521 87.2564 0.432552 56.9376C-0.686992 26.6189 23.3983 1.13914 54.0799 0.0339221C66.9698 -0.414139 79.7084 3.58854 89.9356 11.3251L95.7148 15.6862L86.8795 27.0669L81.1305 22.7058C73.566 17.0005 64.1558 14.0134 54.6245 14.3719C31.9311 15.1784 14.1697 34.0567 14.9564 56.4298C15.7733 78.8329 34.8964 96.367 57.5596 95.5904C61.009 95.4709 64.3979 94.9332 67.6657 93.9773L74.625 91.976L78.7099 105.746L71.7505 107.748C67.3329 109.002 62.7337 109.749 58.0739 109.928Z" fill="white"/>
<path d="M96.7747 50.6646L96.7142 89.3174L82.1903 89.2875L82.2206 73.3664C77.3491 80.0574 69.9359 84.8965 61.2821 86.1212C42.7945 88.7199 26.546 76.682 24.3674 58.7895C22.6427 44.7204 30.0559 31.6071 42.9458 25.9317C55.8962 20.2264 71.0554 23.4823 80.4656 34.0266C81.2221 34.863 81.8878 35.8189 83.0376 37.2228C73.7181 37.2228 65.0341 37.1332 56.3501 37.1929C47.3937 37.2826 40.4041 43.0775 38.6189 51.6802C36.8337 60.1934 42.4617 69.1845 51.1154 71.6936C59.4666 74.143 68.9071 69.991 72.1145 62.135L53.2335 62.1051L53.2638 47.7672L64.0356 47.7971V47.8269C71.8421 47.7971 76.5926 47.8568 85.0043 47.8269H94.0515C95.5038 47.8568 96.7747 49.1114 96.7747 50.6646Z" fill="white"/>
</svg>
