<svg width="43" height="47" viewBox="0 0 43 47" fill="none" xmlns="http://www.w3.org/2000/svg">
<path d="M25.6587 46.9847C12.5299 47.4443 1.47277 37.2953 0.993708 24.3378C0.514651 11.3802 10.8209 0.490748 23.9496 0.0184038C29.4653 -0.173087 34.9161 1.53757 39.2924 4.84398L41.7654 6.70782L37.9847 11.5717L35.5247 9.70784C32.2878 7.26953 28.2611 5.99292 24.1827 6.14611C14.4721 6.4908 6.87187 14.5589 7.20851 24.1207C7.55809 33.6953 15.7409 41.1889 25.4386 40.857C26.9146 40.806 28.3647 40.5762 29.763 40.1677L32.741 39.3123L34.4889 45.1975L31.511 46.0528C29.6206 46.589 27.6526 46.9081 25.6587 46.9847Z" fill="white"/>
<path d="M42.2189 21.6567L42.193 38.176L35.9782 38.1632L35.9912 31.3589C33.9066 34.2185 30.7345 36.2866 27.0315 36.81C19.1206 37.9207 12.1678 32.7759 11.2356 25.1291C10.4976 19.1163 13.6697 13.512 19.1853 11.0864C24.7269 8.64808 31.2136 10.0396 35.2402 14.546C35.5639 14.9035 35.8488 15.312 36.3408 15.912C32.3529 15.912 28.637 15.8737 24.9211 15.8992C21.0886 15.9375 18.0978 18.4141 17.3339 22.0907C16.57 25.7291 18.9782 29.5717 22.6812 30.644C26.2547 31.6908 30.2943 29.9163 31.6667 26.5589L23.5875 26.5461L23.6004 20.4184L28.2098 20.4312V20.4439C31.5502 20.4312 33.583 20.4567 37.1824 20.4439H41.0537C41.6751 20.4567 42.2189 20.9929 42.2189 21.6567Z" fill="white"/>
</svg>
