<svg width="241" height="121" viewBox="0 0 241 121" fill="none" xmlns="http://www.w3.org/2000/svg">
<path d="M11.0702 28.0533L8.19277 26.3706C8.04015 26.2813 7.85831 26.2564 7.68727 26.3012C7.51624 26.346 7.37 26.4569 7.28075 26.6095C7.19149 26.7622 7.16652 26.944 7.21133 27.115C7.25614 27.2861 7.36706 27.4323 7.51969 27.5216L10.3971 29.2043L8.71442 32.0817C8.62516 32.2343 8.60019 32.4162 8.645 32.5872C8.68981 32.7582 8.80073 32.9045 8.95336 32.9937C9.10599 33.083 9.28782 33.108 9.45886 33.0631C9.6299 33.0183 9.77613 32.9074 9.86539 32.7548L11.5481 29.8774L14.4255 31.5601C14.5782 31.6493 14.76 31.6743 14.931 31.6295C15.1021 31.5847 15.2483 31.4737 15.3376 31.3211C15.4268 31.1685 15.4518 30.9867 15.407 30.8156C15.3622 30.6446 15.2512 30.4983 15.0986 30.4091L12.2212 28.7264L13.9039 25.849C13.9931 25.6963 14.0181 25.5145 13.9733 25.3435C13.9285 25.1724 13.8176 25.0262 13.6649 24.9369C13.5123 24.8477 13.3305 24.8227 13.1594 24.8675C12.9884 24.9123 12.8422 25.0232 12.7529 25.1759L11.0702 28.0533Z" fill="#DADADA"/>
<path d="M27.2242 0.430009L24.3468 -1.2527C24.1941 -1.34195 24.0123 -1.36692 23.8413 -1.32211C23.6702 -1.2773 23.524 -1.16638 23.4347 -1.01375C23.3455 -0.861126 23.3205 -0.679291 23.3653 -0.508253C23.4101 -0.337215 23.5211 -0.190983 23.6737 -0.101727L26.5511 1.58098L24.8684 4.45841C24.7792 4.61104 24.7542 4.79287 24.799 4.96391C24.8438 5.13495 24.9547 5.28118 25.1074 5.37044C25.26 5.45969 25.4418 5.48466 25.6129 5.43985C25.7839 5.39504 25.9301 5.28412 26.0194 5.13149L27.7021 2.25406L30.5795 3.93677C30.7321 4.02603 30.914 4.051 31.085 4.00619C31.2561 3.96138 31.4023 3.85045 31.4915 3.69783C31.5808 3.5452 31.6058 3.36336 31.561 3.19233C31.5161 3.02129 31.4052 2.87506 31.2526 2.7858L28.3752 1.10309L30.0579 -1.77434C30.1471 -1.92697 30.1721 -2.1088 30.1273 -2.27984C30.0825 -2.45088 29.9716 -2.59711 29.8189 -2.68637C29.6663 -2.77562 29.4845 -2.80059 29.3134 -2.75578C29.1424 -2.71097 28.9962 -2.60005 28.9069 -2.44742L27.2242 0.430009Z" fill="#DADADA"/>
<path d="M38.6935 44.2074L35.8161 42.5246C35.6635 42.4354 35.4816 42.4104 35.3106 42.4552C35.1396 42.5 34.9933 42.611 34.9041 42.7636C34.8148 42.9162 34.7898 43.0981 34.8347 43.2691C34.8795 43.4401 34.9904 43.5864 35.143 43.6756L38.0204 45.3583L36.3377 48.2358C36.2485 48.3884 36.2235 48.5702 36.2683 48.7413C36.3131 48.9123 36.4241 49.0585 36.5767 49.1478C36.7293 49.237 36.9111 49.262 37.0822 49.2172C37.2532 49.1724 37.3995 49.0615 37.4887 48.9088L39.1714 46.0314L42.0488 47.7141C42.2015 47.8034 42.3833 47.8283 42.5543 47.7835C42.7254 47.7387 42.8716 47.6278 42.9609 47.4752C43.0501 47.3225 43.0751 47.1407 43.0303 46.9697C42.9855 46.7986 42.8746 46.6524 42.7219 46.5631L39.8445 44.8804L41.5272 42.003C41.6165 41.8504 41.6414 41.6685 41.5966 41.4975C41.5518 41.3265 41.4409 41.1802 41.2883 41.091C41.1356 41.0017 40.9538 40.9768 40.7828 41.0216C40.6117 41.0664 40.4655 41.1773 40.3762 41.3299L38.6935 44.2074Z" fill="#005653"/>
<path d="M54.8475 16.5841L51.9701 14.9014C51.8175 14.8121 51.6356 14.7871 51.4646 14.8319C51.2935 14.8768 51.1473 14.9877 51.0581 15.1403C50.9688 15.2929 50.9438 15.4748 50.9886 15.6458C51.0335 15.8168 51.1444 15.9631 51.297 16.0523L54.1744 17.735L52.4917 20.6125C52.4025 20.7651 52.3775 20.9469 52.4223 21.118C52.4671 21.289 52.578 21.4352 52.7307 21.5245C52.8833 21.6137 53.0651 21.6387 53.2362 21.5939C53.4072 21.5491 53.5534 21.4382 53.6427 21.2855L55.3254 18.4081L58.2028 20.0908C58.3555 20.1801 58.5373 20.205 58.7083 20.1602C58.8794 20.1154 59.0256 20.0045 59.1149 19.8519C59.2041 19.6993 59.2291 19.5174 59.1843 19.3464C59.1395 19.1753 59.0285 19.0291 58.8759 18.9399L55.9985 17.2571L57.6812 14.3797C57.7705 14.2271 57.7954 14.0453 57.7506 13.8742C57.7058 13.7032 57.5949 13.5569 57.4423 13.4677C57.2896 13.3784 57.1078 13.3535 56.9368 13.3983C56.7657 13.4431 56.6195 13.554 56.5302 13.7066L54.8475 16.5841Z" fill="#DADADA"/>
<path d="M66.3168 60.3612L63.4394 58.6785C63.2868 58.5892 63.1049 58.5642 62.9339 58.609C62.7628 58.6538 62.6166 58.7648 62.5274 58.9174C62.4381 59.07 62.4131 59.2519 62.4579 59.4229C62.5028 59.5939 62.6137 59.7402 62.7663 59.8294L65.6437 61.5121L63.961 64.3896C63.8718 64.5422 63.8468 64.724 63.8916 64.8951C63.9364 65.0661 64.0473 65.2123 64.2 65.3016C64.3526 65.3908 64.5344 65.4158 64.7055 65.371C64.8765 65.3262 65.0227 65.2153 65.112 65.0626L66.7947 62.1852L69.6721 63.8679C69.8248 63.9572 70.0066 63.9821 70.1776 63.9373C70.3487 63.8925 70.4949 63.7816 70.5842 63.629C70.6734 63.4764 70.6984 63.2945 70.6536 63.1235C70.6088 62.9524 70.4978 62.8062 70.3452 62.717L67.4678 61.0342L69.1505 58.1568C69.2398 58.0042 69.2647 57.8224 69.2199 57.6513C69.1751 57.4803 69.0642 57.334 68.9116 57.2448C68.7589 57.1555 68.5771 57.1306 68.4061 57.1754C68.235 57.2202 68.0888 57.3311 67.9995 57.4837L66.3168 60.3612Z" fill="#DADADA"/>
<path d="M82.4708 32.7379L79.5934 31.0552C79.4408 30.9659 79.2589 30.9409 79.0879 30.9857C78.9168 31.0306 78.7706 31.1415 78.6814 31.2941C78.5921 31.4467 78.5671 31.6286 78.6119 31.7996C78.6567 31.9706 78.7677 32.1169 78.9203 32.2061L81.7977 33.8888L80.115 36.7663C80.0258 36.9189 80.0008 37.1007 80.0456 37.2718C80.0904 37.4428 80.2013 37.589 80.354 37.6783C80.5066 37.7676 80.6884 37.7925 80.8595 37.7477C81.0305 37.7029 81.1767 37.592 81.266 37.4394L82.9487 34.5619L85.8261 36.2446C85.9788 36.3339 86.1606 36.3589 86.3316 36.314C86.5027 36.2692 86.6489 36.1583 86.7382 36.0057C86.8274 35.8531 86.8524 35.6712 86.8076 35.5002C86.7628 35.3291 86.6518 35.1829 86.4992 35.0937L83.6218 33.411L85.3045 30.5335C85.3937 30.3809 85.4187 30.1991 85.3739 30.028C85.3291 29.857 85.2182 29.7108 85.0655 29.6215C84.9129 29.5322 84.7311 29.5073 84.56 29.5521C84.389 29.5969 84.2428 29.7078 84.1535 29.8604L82.4708 32.7379Z" fill="#DADADA"/>
<path d="M98.6248 5.11458L95.7474 3.43187C95.5947 3.34262 95.4129 3.31765 95.2419 3.36246C95.0708 3.40727 94.9246 3.51819 94.8353 3.67082C94.7461 3.82344 94.7211 4.00528 94.7659 4.17632C94.8107 4.34736 94.9217 4.49359 95.0743 4.58284L97.9517 6.26555L96.269 9.14298C96.1798 9.29561 96.1548 9.47744 96.1996 9.64848C96.2444 9.81952 96.3553 9.96575 96.508 10.055C96.6606 10.1443 96.8424 10.1692 97.0135 10.1244C97.1845 10.0796 97.3307 9.96869 97.42 9.81606L99.1027 6.93863L101.98 8.62134C102.133 8.7106 102.315 8.73557 102.486 8.69076C102.657 8.64595 102.803 8.53502 102.892 8.3824C102.981 8.22977 103.006 8.04793 102.962 7.8769C102.917 7.70586 102.806 7.55963 102.653 7.47037L99.7758 5.78766L101.458 2.91023C101.548 2.7576 101.573 2.57577 101.528 2.40473C101.483 2.23369 101.372 2.08746 101.22 1.9982C101.067 1.90895 100.885 1.88398 100.714 1.92879C100.543 1.9736 100.397 2.08452 100.308 2.23715L98.6248 5.11458Z" fill="#DADADA"/>
<path d="M93.9402 76.5152L91.0627 74.8325C90.9101 74.7433 90.7283 74.7183 90.5572 74.7631C90.3862 74.8079 90.24 74.9188 90.1507 75.0715C90.0615 75.2241 90.0365 75.4059 90.0813 75.577C90.1261 75.748 90.237 75.8942 90.3897 75.9835L93.2671 77.6662L91.5844 80.5436C91.4951 80.6962 91.4702 80.8781 91.515 81.0491C91.5598 81.2202 91.6707 81.3664 91.8233 81.4556C91.976 81.5449 92.1578 81.5699 92.3288 81.5251C92.4999 81.4802 92.6461 81.3693 92.7354 81.2167L94.4181 78.3393L97.2955 80.022C97.4481 80.1112 97.63 80.1362 97.801 80.0914C97.972 80.0466 98.1183 79.9357 98.2075 79.783C98.2968 79.6304 98.3217 79.4486 98.2769 79.2775C98.2321 79.1065 98.1212 78.9603 97.9686 78.871L95.0911 77.1883L96.7738 74.3109C96.8631 74.1582 96.8881 73.9764 96.8433 73.8054C96.7985 73.6343 96.6875 73.4881 96.5349 73.3988C96.3823 73.3096 96.2004 73.2846 96.0294 73.3294C95.8584 73.3742 95.7121 73.4852 95.6229 73.6378L93.9402 76.5152Z" fill="#DADADA"/>
<path d="M110.094 48.8919L107.217 47.2092C107.064 47.12 106.882 47.095 106.711 47.1398C106.54 47.1846 106.394 47.2955 106.305 47.4482C106.215 47.6008 106.19 47.7826 106.235 47.9537C106.28 48.1247 106.391 48.2709 106.544 48.3602L109.421 50.0429L107.738 52.9203C107.649 53.073 107.624 53.2548 107.669 53.4258C107.714 53.5969 107.825 53.7431 107.977 53.8324C108.13 53.9216 108.312 53.9466 108.483 53.9018C108.654 53.857 108.8 53.746 108.889 53.5934L110.572 50.716L113.449 52.3987C113.602 52.4879 113.784 52.5129 113.955 52.4681C114.126 52.4233 114.272 52.3124 114.362 52.1597C114.451 52.0071 114.476 51.8253 114.431 51.6542C114.386 51.4832 114.275 51.337 114.123 51.2477L111.245 49.565L112.928 46.6876C113.017 46.5349 113.042 46.3531 112.997 46.1821C112.952 46.011 112.842 45.8648 112.689 45.7755C112.536 45.6863 112.354 45.6613 112.183 45.7061C112.012 45.7509 111.866 45.8619 111.777 46.0145L110.094 48.8919Z" fill="#0A0A0A"/>
<path d="M126.248 21.2686L123.371 19.5859C123.218 19.4967 123.036 19.4717 122.865 19.5165C122.694 19.5613 122.548 19.6722 122.459 19.8249C122.369 19.9775 122.344 20.1593 122.389 20.3304C122.434 20.5014 122.545 20.6476 122.698 20.7369L125.575 22.4196L123.892 25.297C123.803 25.4497 123.778 25.6315 123.823 25.8025C123.868 25.9736 123.979 26.1198 124.131 26.2091C124.284 26.2983 124.466 26.3233 124.637 26.2785C124.808 26.2337 124.954 26.1227 125.043 25.9701L126.726 23.0927L129.603 24.7754C129.756 24.8647 129.938 24.8896 130.109 24.8448C130.28 24.8 130.426 24.6891 130.516 24.5364C130.605 24.3838 130.63 24.202 130.585 24.0309C130.54 23.8599 130.429 23.7137 130.277 23.6244L127.399 21.9417L129.082 19.0643C129.171 18.9117 129.196 18.7298 129.151 18.5588C129.106 18.3877 128.996 18.2415 128.843 18.1523C128.69 18.063 128.508 18.038 128.337 18.0828C128.166 18.1277 128.02 18.2386 127.931 18.3912L126.248 21.2686Z" fill="#DADADA"/>
<path d="M142.402 -6.3549L139.525 -8.03761C139.372 -8.12687 139.19 -8.15184 139.019 -8.10703C138.848 -8.06221 138.702 -7.95129 138.613 -7.79867C138.523 -7.64604 138.498 -7.4642 138.543 -7.29316C138.588 -7.12213 138.699 -6.97589 138.852 -6.88664L141.729 -5.20393L140.046 -2.3265C139.957 -2.17387 139.932 -1.99204 139.977 -1.821C140.022 -1.64996 140.133 -1.50373 140.285 -1.41447C140.438 -1.32522 140.62 -1.30025 140.791 -1.34506C140.962 -1.38987 141.108 -1.50079 141.197 -1.65342L142.88 -4.53085L145.757 -2.84814C145.91 -2.75889 146.092 -2.73392 146.263 -2.77873C146.434 -2.82354 146.58 -2.93446 146.669 -3.08709C146.759 -3.23971 146.784 -3.42155 146.739 -3.59259C146.694 -3.76363 146.583 -3.90986 146.431 -3.99911L143.553 -5.68182L145.236 -8.55925C145.325 -8.71188 145.35 -8.89371 145.305 -9.06475C145.26 -9.23579 145.15 -9.38202 144.997 -9.47128C144.844 -9.56054 144.662 -9.58551 144.491 -9.54069C144.32 -9.49588 144.174 -9.38496 144.085 -9.23233L142.402 -6.3549Z" fill="#DADADA"/>
<path d="M121.564 92.6693L118.686 90.9866C118.533 90.8973 118.352 90.8723 118.181 90.9171C118.01 90.962 117.863 91.0729 117.774 91.2255C117.685 91.3781 117.66 91.56 117.705 91.731C117.749 91.902 117.86 92.0483 118.013 92.1375L120.89 93.8202L119.208 96.6977C119.118 96.8503 119.094 97.0321 119.138 97.2032C119.183 97.3742 119.294 97.5204 119.447 97.6097C119.599 97.699 119.781 97.7239 119.952 97.6791C120.123 97.6343 120.269 97.5234 120.359 97.3708L122.041 94.4933L124.919 96.176C125.071 96.2653 125.253 96.2903 125.424 96.2454C125.595 96.2006 125.742 96.0897 125.831 95.9371C125.92 95.7845 125.945 95.6026 125.9 95.4316C125.855 95.2605 125.745 95.1143 125.592 95.0251L122.714 93.3423L124.397 90.4649C124.486 90.3123 124.511 90.1305 124.467 89.9594C124.422 89.7884 124.311 89.6421 124.158 89.5529C124.006 89.4636 123.824 89.4387 123.653 89.4835C123.482 89.5283 123.335 89.6392 123.246 89.7918L121.564 92.6693Z" fill="#0A0A0A"/>
<path d="M137.718 65.046L134.84 63.3633C134.687 63.274 134.506 63.249 134.335 63.2939C134.164 63.3387 134.017 63.4496 133.928 63.6022C133.839 63.7548 133.814 63.9367 133.859 64.1077C133.903 64.2788 134.014 64.425 134.167 64.5142L137.044 66.1969L135.362 69.0744C135.272 69.227 135.247 69.4088 135.292 69.5799C135.337 69.7509 135.448 69.8971 135.601 69.9864C135.753 70.0757 135.935 70.1006 136.106 70.0558C136.277 70.011 136.423 69.9001 136.513 69.7475L138.195 66.87L141.073 68.5527C141.225 68.642 141.407 68.667 141.578 68.6222C141.749 68.5773 141.896 68.4664 141.985 68.3138C142.074 68.1612 142.099 67.9793 142.054 67.8083C142.009 67.6373 141.899 67.491 141.746 67.4018L138.868 65.7191L140.551 62.8416C140.64 62.689 140.665 62.5072 140.621 62.3361C140.576 62.1651 140.465 62.0189 140.312 61.9296C140.16 61.8403 139.978 61.8154 139.807 61.8602C139.636 61.905 139.489 62.0159 139.4 62.1685L137.718 65.046Z" fill="#DADADA"/>
<path d="M153.872 37.4227L150.994 35.74C150.841 35.6507 150.66 35.6258 150.489 35.6706C150.318 35.7154 150.171 35.8263 150.082 35.9789C149.993 36.1316 149.968 36.3134 150.013 36.4844C150.057 36.6555 150.168 36.8017 150.321 36.8909L153.198 38.5737L151.516 41.4511C151.426 41.6037 151.401 41.7855 151.446 41.9566C151.491 42.1276 151.602 42.2739 151.755 42.3631C151.907 42.4524 152.089 42.4773 152.26 42.4325C152.431 42.3877 152.577 42.2768 152.667 42.1242L154.349 39.2467L157.227 40.9294C157.379 41.0187 157.561 41.0437 157.732 40.9989C157.903 40.9541 158.05 40.8431 158.139 40.6905C158.228 40.5379 158.253 40.356 158.208 40.185C158.163 40.014 158.053 39.8677 157.9 39.7785L155.022 38.0958L156.705 35.2183C156.794 35.0657 156.819 34.8839 156.775 34.7128C156.73 34.5418 156.619 34.3956 156.466 34.3063C156.314 34.2171 156.132 34.1921 155.961 34.2369C155.79 34.2817 155.643 34.3926 155.554 34.5453L153.872 37.4227Z" fill="#DADADA"/>
<path d="M170.025 9.79915L167.148 8.11644C166.995 8.02719 166.814 8.00222 166.643 8.04703C166.472 8.09184 166.325 8.20276 166.236 8.35539C166.147 8.50802 166.122 8.68985 166.167 8.86089C166.211 9.03193 166.322 9.17816 166.475 9.26741L169.352 10.9501L167.67 13.8276C167.58 13.9802 167.555 14.162 167.6 14.3331C167.645 14.5041 167.756 14.6503 167.909 14.7396C168.061 14.8288 168.243 14.8538 168.414 14.809C168.585 14.7642 168.731 14.6533 168.821 14.5006L170.503 11.6232L173.381 13.3059C173.533 13.3952 173.715 13.4201 173.886 13.3753C174.057 13.3305 174.204 13.2196 174.293 13.067C174.382 12.9143 174.407 12.7325 174.362 12.5615C174.317 12.3904 174.207 12.2442 174.054 12.1549L171.176 10.4722L172.859 7.5948C172.948 7.44217 172.973 7.26034 172.929 7.0893C172.884 6.91826 172.773 6.77203 172.62 6.68277C172.468 6.59352 172.286 6.56855 172.115 6.61336C171.944 6.65817 171.797 6.76909 171.708 6.92172L170.025 9.79915Z" fill="#DADADA"/>
<path d="M149.187 108.823L146.309 107.141C146.157 107.051 145.975 107.026 145.804 107.071C145.633 107.116 145.487 107.227 145.397 107.38C145.308 107.532 145.283 107.714 145.328 107.885C145.373 108.056 145.484 108.202 145.636 108.292L148.514 109.974L146.831 112.852C146.742 113.004 146.717 113.186 146.762 113.357C146.806 113.528 146.917 113.674 147.07 113.764C147.223 113.853 147.404 113.878 147.575 113.833C147.747 113.788 147.893 113.677 147.982 113.525L149.665 110.647L152.542 112.33C152.695 112.419 152.877 112.444 153.048 112.399C153.219 112.355 153.365 112.244 153.454 112.091C153.543 111.939 153.568 111.757 153.524 111.586C153.479 111.415 153.368 111.268 153.215 111.179L150.338 109.496L152.02 106.619C152.11 106.466 152.135 106.285 152.09 106.113C152.045 105.942 151.934 105.796 151.782 105.707C151.629 105.618 151.447 105.593 151.276 105.638C151.105 105.682 150.959 105.793 150.87 105.946L149.187 108.823Z" fill="#DADADA"/>
<path d="M165.341 81.2L162.463 79.5173C162.311 79.4281 162.129 79.4031 161.958 79.4479C161.787 79.4927 161.641 79.6036 161.551 79.7563C161.462 79.9089 161.437 80.0907 161.482 80.2618C161.527 80.4328 161.638 80.579 161.79 80.6683L164.668 82.351L162.985 85.2284C162.896 85.3811 162.871 85.5629 162.916 85.7339C162.96 85.905 163.071 86.0512 163.224 86.1405C163.377 86.2297 163.558 86.2547 163.729 86.2099C163.9 86.1651 164.047 86.0541 164.136 85.9015L165.819 83.0241L168.696 84.7068C168.849 84.796 169.031 84.821 169.202 84.7762C169.373 84.7314 169.519 84.6205 169.608 84.4678C169.697 84.3152 169.722 84.1334 169.678 83.9623C169.633 83.7913 169.522 83.6451 169.369 83.5558L166.492 81.8731L168.174 78.9957C168.264 78.8431 168.289 78.6612 168.244 78.4902C168.199 78.3191 168.088 78.1729 167.936 78.0837C167.783 77.9944 167.601 77.9694 167.43 78.0142C167.259 78.059 167.113 78.17 167.024 78.3226L165.341 81.2Z" fill="#DADADA"/>
<path d="M181.495 53.5767L178.617 51.894C178.465 51.8048 178.283 51.7798 178.112 51.8246C177.941 51.8694 177.795 51.9803 177.705 52.133C177.616 52.2856 177.591 52.4674 177.636 52.6385C177.681 52.8095 177.792 52.9557 177.944 53.045L180.822 54.7277L179.139 57.6051C179.05 57.7578 179.025 57.9396 179.07 58.1106C179.114 58.2817 179.225 58.4279 179.378 58.5172C179.531 58.6064 179.712 58.6314 179.883 58.5866C180.054 58.5418 180.201 58.4309 180.29 58.2782L181.973 55.4008L184.85 57.0835C185.003 57.1728 185.185 57.1977 185.356 57.1529C185.527 57.1081 185.673 56.9972 185.762 56.8446C185.851 56.6919 185.876 56.5101 185.832 56.3391C185.787 56.168 185.676 56.0218 185.523 55.9325L182.646 54.2498L184.328 51.3724C184.418 51.2198 184.443 51.0379 184.398 50.8669C184.353 50.6958 184.242 50.5496 184.09 50.4604C183.937 50.3711 183.755 50.3461 183.584 50.3909C183.413 50.4358 183.267 50.5467 183.178 50.6993L181.495 53.5767Z" fill="#0A0A0A"/>
<path d="M197.649 25.9532L194.771 24.2705C194.619 24.1812 194.437 24.1563 194.266 24.2011C194.095 24.2459 193.949 24.3568 193.859 24.5094C193.77 24.6621 193.745 24.8439 193.79 25.0149C193.835 25.186 193.946 25.3322 194.098 25.4215L196.976 27.1042L195.293 29.9816C195.204 30.1342 195.179 30.3161 195.224 30.4871C195.268 30.6581 195.379 30.8044 195.532 30.8936C195.685 30.9829 195.866 31.0079 196.037 30.963C196.208 30.9182 196.355 30.8073 196.444 30.6547L198.127 27.7773L201.004 29.46C201.157 29.5492 201.339 29.5742 201.51 29.5294C201.681 29.4846 201.827 29.3736 201.916 29.221C202.005 29.0684 202.03 28.8866 201.986 28.7155C201.941 28.5445 201.83 28.3982 201.677 28.309L198.8 26.6263L200.482 23.7489C200.572 23.5962 200.597 23.4144 200.552 23.2434C200.507 23.0723 200.396 22.9261 200.244 22.8368C200.091 22.7476 199.909 22.7226 199.738 22.7674C199.567 22.8122 199.421 22.9231 199.331 23.0758L197.649 25.9532Z" fill="#DADADA"/>
<path d="M213.803 -1.67009L210.925 -3.3528C210.773 -3.44205 210.591 -3.46702 210.42 -3.42221C210.249 -3.3774 210.103 -3.26648 210.013 -3.11385C209.924 -2.96122 209.899 -2.77939 209.944 -2.60835C209.989 -2.43731 210.1 -2.29108 210.252 -2.20182L213.13 -0.519117L211.447 2.35831C211.358 2.51094 211.333 2.69278 211.378 2.86381C211.422 3.03485 211.533 3.18108 211.686 3.27034C211.839 3.3596 212.02 3.38457 212.191 3.33976C212.362 3.29494 212.509 3.18402 212.598 3.0314L214.281 0.153966L217.158 1.83667C217.311 1.92593 217.493 1.9509 217.664 1.90609C217.835 1.86128 217.981 1.75036 218.07 1.59773C218.159 1.4451 218.184 1.26327 218.14 1.09223C218.095 0.921189 217.984 0.774958 217.831 0.685701L214.954 -0.997006L216.636 -3.87444C216.726 -4.02707 216.751 -4.2089 216.706 -4.37994C216.661 -4.55098 216.55 -4.69721 216.398 -4.78646C216.245 -4.87572 216.063 -4.90069 215.892 -4.85588C215.721 -4.81107 215.575 -4.70015 215.485 -4.54752L213.803 -1.67009Z" fill="#DADADA"/>
</svg>
